<svg width="24" height="24" viewBox="0 0 24 24" fill="none" xmlns="http://www.w3.org/2000/svg">
<g clip-path="url(#clip0_512_387)">
<path d="M15.1196 10.395L17.0171 11.5725C17.3171 11.7675 17.4146 12.165 17.2196 12.465C17.0996 12.6675 16.8896 12.7725 16.6721 12.7725C16.5521 12.7725 16.4321 12.7425 16.3271 12.675L15.2021 11.9775L16.0571 14.9925C16.1546 15.3375 15.9521 15.6975 15.6071 15.795C15.5471 15.81 15.4871 15.8175 15.4271 15.8175C15.1421 15.8175 14.8871 15.63 14.8046 15.345L14.2796 13.4925L13.7546 15.345C13.6721 15.63 13.4171 15.8175 13.1321 15.8175C13.0721 15.8175 13.0121 15.81 12.9521 15.795C12.7862 15.748 12.6457 15.6371 12.5613 15.4867C12.477 15.3363 12.4557 15.1586 12.5021 14.9925L13.3721 11.925L11.8796 12.795C11.8571 12.81 11.8346 12.825 11.8121 12.8325L11.8038 12.84H11.7971L11.7296 12.8625L11.7213 12.87H11.7146C11.6921 12.8775 11.6696 12.885 11.6471 12.885H11.6321C11.6096 12.8925 11.5796 12.8925 11.5571 12.8925C11.5458 12.8925 11.5323 12.8903 11.5196 12.8888C11.5061 12.8873 11.4933 12.885 11.4821 12.885H11.4671C11.4573 12.8818 11.4473 12.8793 11.4371 12.8775C11.4281 12.8753 11.4183 12.8738 11.4071 12.87C11.4071 12.8625 11.3996 12.8625 11.3921 12.8625L11.3246 12.84L10.3496 12.45L11.2196 14.9625C11.3321 15.3075 11.1521 15.675 10.8146 15.7875C10.7471 15.8175 10.6721 15.825 10.6046 15.825C10.3346 15.825 10.0796 15.6525 9.9896 15.3825L9.4571 13.8225L8.9246 15.3825C8.8271 15.6525 8.5796 15.825 8.3096 15.825C8.20646 15.8236 8.10511 15.7979 8.01374 15.75C7.92237 15.7022 7.84356 15.6335 7.78367 15.5495C7.72379 15.4655 7.68452 15.3686 7.66905 15.2666C7.65357 15.1647 7.66233 15.0605 7.6946 14.9625L8.4371 12.7875L7.6721 13.26C7.5596 13.3275 7.4471 13.3575 7.3271 13.3575C7.1171 13.3575 6.8996 13.245 6.7796 13.05C6.73302 12.978 6.7018 12.8972 6.68791 12.8126C6.67402 12.728 6.67776 12.6415 6.69888 12.5584C6.72 12.4753 6.75806 12.3975 6.81067 12.3298C6.86328 12.2621 6.9293 12.206 7.0046 12.165L8.6396 11.145C8.37249 10.9703 8.16772 10.7153 8.0548 10.4168C7.94187 10.1183 7.92661 9.79159 8.01121 9.48383C8.09581 9.17607 8.2759 8.90311 8.52556 8.70425C8.77521 8.5054 9.08154 8.39091 9.40042 8.37728C9.7193 8.36366 10.0343 8.45159 10.3 8.62842C10.5657 8.80526 10.7684 9.06186 10.879 9.36128C10.9895 9.66069 11.0022 9.98747 10.9151 10.2945C10.8281 10.6016 10.6458 10.8731 10.3946 11.07L11.5271 11.52L13.4546 10.3875C13.0496 10.1175 12.7871 9.66 12.7871 9.135C12.7868 8.87385 12.8543 8.61711 12.9831 8.38992C13.1119 8.16273 13.2975 7.97289 13.5217 7.83899C13.7459 7.7051 14.0011 7.63175 14.2622 7.62614C14.5232 7.62052 14.7813 7.68282 15.0111 7.80694C15.2409 7.93105 15.4344 8.11273 15.5729 8.33417C15.7113 8.55561 15.7898 8.80921 15.8008 9.07013C15.8117 9.33105 15.7547 9.59034 15.6353 9.82259C15.5159 10.0548 15.3382 10.2521 15.1196 10.395Z" fill="#229935"/>
<path d="M13.4 1.32975C13.0285 0.958689 12.5248 0.750267 11.9997 0.750267C11.4746 0.750267 10.971 0.958689 10.5995 1.32975L1.32949 10.5998C0.958422 10.9713 0.75 11.4749 0.75 12C0.75 12.5251 0.958422 13.0287 1.32949 13.4003L10.5995 22.6703C10.971 23.0413 11.4746 23.2497 11.9997 23.2497C12.5248 23.2497 13.0285 23.0413 13.4 22.6703L22.67 13.4003C23.041 13.0287 23.2495 12.5251 23.2495 12C23.2495 11.4749 23.041 10.9713 22.67 10.5998L13.4 1.32975ZM11.66 2.39025C11.8475 2.20275 12.152 2.20275 12.3395 2.39025L21.6095 11.6603C21.797 11.8478 21.797 12.1523 21.6095 12.3398L12.3395 21.6098C12.2492 21.6996 12.1271 21.7501 11.9997 21.7501C11.8724 21.7501 11.7502 21.6996 11.66 21.6098L2.38999 12.3398C2.30013 12.2495 2.24968 12.1274 2.24968 12C2.24968 11.8727 2.30013 11.7505 2.38999 11.6603L11.66 2.39025Z" fill="#229935"/>
</g>
<defs>
<clipPath id="clip0_512_387">
<rect width="24" height="24" fill="white"/>
</clipPath>
</defs>
</svg>
